<?xml version="1.0" encoding="UTF-8" standalone="no"?>
<!-- Created with Inkscape (http://www.inkscape.org/) -->

<svg
   version="1.1"
   id="svg1"
   width="496"
   height="240"
   viewBox="0 0 496 240"
   sodipodi:docname="0c9bca10-d762-4cc3-9e60-86edc442c681.ai"
   xmlns:inkscape="http://www.inkscape.org/namespaces/inkscape"
   xmlns:sodipodi="http://sodipodi.sourceforge.net/DTD/sodipodi-0.dtd"
   xmlns="http://www.w3.org/2000/svg"
   xmlns:svg="http://www.w3.org/2000/svg">
  <defs
     id="defs1">
    <clipPath
       clipPathUnits="userSpaceOnUse"
       id="clipPath3">
      <path
         d="M 0,180 H 372 V 0 H 0 Z"
         transform="translate(-141.4426,-94.455002)"
         id="path3" />
    </clipPath>
    <clipPath
       clipPathUnits="userSpaceOnUse"
       id="clipPath5">
      <path
         d="M 0,180 H 372 V 0 H 0 Z"
         transform="translate(-212.9626,-114.065)"
         id="path5" />
    </clipPath>
    <clipPath
       clipPathUnits="userSpaceOnUse"
       id="clipPath7">
      <path
         d="M 0,180 H 372 V 0 H 0 Z"
         transform="translate(-276.7132,-118.385)"
         id="path7" />
    </clipPath>
    <clipPath
       clipPathUnits="userSpaceOnUse"
       id="clipPath9">
      <path
         d="M 0,180 H 372 V 0 H 0 Z"
         transform="translate(-31.142001,-90.346105)"
         id="path9" />
    </clipPath>
    <clipPath
       clipPathUnits="userSpaceOnUse"
       id="clipPath11">
      <path
         d="M 0,180 H 372 V 0 H 0 Z"
         transform="translate(-32.559601,-90.330602)"
         id="path11" />
    </clipPath>
    <clipPath
       clipPathUnits="userSpaceOnUse"
       id="clipPath13">
      <path
         d="M 0,180 H 372 V 0 H 0 Z"
         transform="translate(-81.865802,-80.218705)"
         id="path13" />
    </clipPath>
    <clipPath
       clipPathUnits="userSpaceOnUse"
       id="clipPath15">
      <path
         d="M 0,180 H 372 V 0 H 0 Z"
         transform="translate(-83.279305,-80.210905)"
         id="path15" />
    </clipPath>
    <clipPath
       clipPathUnits="userSpaceOnUse"
       id="clipPath17">
      <path
         d="M 0,180 H 372 V 0 H 0 Z"
         transform="translate(-51.682102,-90.9907)"
         id="path17" />
    </clipPath>
    <clipPath
       clipPathUnits="userSpaceOnUse"
       id="clipPath19">
      <path
         d="M 0,180 H 372 V 0 H 0 Z"
         transform="translate(-53.095702,-90.9829)"
         id="path19" />
    </clipPath>
  </defs>
  <sodipodi:namedview
     id="namedview1"
     pagecolor="#ffffff"
     bordercolor="#000000"
     borderopacity="0.25"
     inkscape:showpageshadow="2"
     inkscape:pageopacity="0.0"
     inkscape:pagecheckerboard="0"
     inkscape:deskcolor="#d1d1d1">
    <inkscape:page
       x="0"
       y="0"
       inkscape:label="1"
       id="page1"
       width="496"
       height="240"
       margin="0"
       bleed="0" />
  </sodipodi:namedview>
  <g
     id="layer-MC0"
     inkscape:groupmode="layer"
     inkscape:label="Layer 1">
    <path
       id="path1"
       d="M 0,0 H 372 V 180 H 0 Z"
       style="fill:#020000;fill-opacity:1;fill-rule:nonzero;stroke:none"
       transform="matrix(1.3333333,0,0,-1.3333333,0,240)" />
    <path
       id="path2"
       d="m 0,0 c 0.04,7.99 -0.02,15.97 0.02,23.94 15.89,0 31.78,0.02 47.67,-0.01 5.88,0 11.86,-1.15 17.05,-4.01 C 60.55,16.72 57.3,12.47 55.02,7.73 53,8.49 50.91,9.23 48.71,9.12 38.28,9.11 27.85,9.14 17.42,9.09 17.44,6.07 17.41,3.05 17.4,0.03 11.6,0.04 5.8,0.07 0,0"
       style="fill:#ffffff;fill-opacity:1;fill-rule:nonzero;stroke:none"
       transform="matrix(1.3333333,0,0,-1.3333333,188.59013,114.06)"
       clip-path="url(#clipPath3)" />
    <path
       id="path4"
       d="M 0,0 C 6.2,3.22 13.28,4.4 20.22,4.34 33.17,4.3 46.12,4.39 59.07,4.3 55.29,-0.64 51.48,-5.56 47.74,-10.52 c -9.53,0.06 -19.06,0.02 -28.59,0.02 -5.02,0.03 -10.33,-1.7 -13.57,-5.7 -2.94,-3.39 -2.65,-8.33 -5.39,-11.85 -5.01,-6.84 -13.87,-9.54 -22.02,-9.76 -10.75,-0.1 -21.5,-0.01 -32.25,-0.04 -0.04,-4.87 -0.04,-9.75 -0.02,-14.63 -5.8,0.01 -11.59,0.01 -17.39,0 -0.03,9.68 -0.04,19.35 0,29.03 16.56,0.09 33.13,-0.03 49.7,0.05 3.19,0.01 6.89,1.75 7.39,5.21 1.55,7.93 7.28,14.62 14.4,18.19"
       style="fill:#ffffff;fill-opacity:1;fill-rule:nonzero;stroke:none"
       transform="matrix(1.3333333,0,0,-1.3333333,283.95013,87.913333)"
       clip-path="url(#clipPath5)" />
    <path
       id="path6"
       d="m 0,0 c 0.28,-0.06 16.949,-15.11 24.899,-22.32 8.51,7.3 16.67,14.99 25.14,22.35 4.68,-0.02 9.37,-0.01 14.06,-0.02 0.08,-18.93 0.03,-37.87 0.03,-56.81 -5.33,0.02 -10.67,-0.02 -16,0.04 0.02,11.05 0.01,22.11 0.01,33.16 -7.7,-6.72 -15.542,-13.59 -23.202,-20.35 -5.373,4.384 -17.978,15.99 -23.048,20.4 -0.06,-11.08 -0.02,-22.16 -0.01,-33.24 -15.83,0.01 -31.66,-0.03 -47.48,0.02 -10.47,0.21 -21.43,4.35 -27.74,13.02 4.39,1.6 8.59,3.96 11.62,7.6 0.62,0.48 1.52,2.34 2.31,0.99 3.13,-4.5 8.53,-6.88 13.94,-6.92 10.45,-0.11 20.91,0.02 31.36,-0.03 -0.02,7.91 -0.09,15.83 0.04,23.75 C -9.251,-12.6 -4.76,-5.81 0,0"
       style="fill:#ffffff;fill-opacity:1;fill-rule:nonzero;stroke:none"
       transform="matrix(1.3333333,0,0,-1.3333333,368.95093,82.153333)"
       clip-path="url(#clipPath7)" />
    <path
       id="path8"
       d="M 0,0 35.501,34.56 60.415,8.498 41.941,-9.763 56.36,-24.64 80.698,-0.68 40.93,40.041 46.376,45.36 91.442,-0.785 56.121,-35.175 31.316,-9.013 49.837,9.112 35.384,23.822 10.879,0.05 50.706,-40.715 45.278,-46.052 Z"
       style="fill:#ffffff;fill-opacity:1;fill-rule:nonzero;stroke:none"
       transform="matrix(1.3333333,0,0,-1.3333333,41.522667,119.53853)"
       clip-path="url(#clipPath9)" />
    <path
       id="path10"
       d="m 0,0 43.873,-44.623 4.003,3.938 L 8.045,0.085 33.983,25.247 49.835,9.114 31.302,-9.024 54.731,-33.736 88.61,-0.752 44.941,43.961 40.926,40.04 80.692,-0.678 54.925,-26.044 39.117,-9.733 57.595,8.533 34.058,33.155 Z M 43.848,-47.451 -2.835,0.031 34.108,35.996 60.4,8.493 41.931,-9.762 54.958,-23.205 77.87,-0.65 38.098,40.073 44.975,46.79 91.44,-0.788 54.675,-36.583 28.496,-8.971 47.004,9.142 33.949,22.427 10.878,0.047 50.701,-40.714 Z"
       style="fill:#ffffff;fill-opacity:1;fill-rule:nonzero;stroke:none"
       transform="matrix(1.3333333,0,0,-1.3333333,43.4128,119.5592)"
       clip-path="url(#clipPath11)" />
    <path
       id="path12"
       d="M 0,0 14.488,14.339 19.84,8.925 5.352,-5.414 Z"
       style="fill:#ffffff;fill-opacity:1;fill-rule:nonzero;stroke:none"
       transform="matrix(1.3333333,0,0,-1.3333333,109.1544,133.04173)"
       clip-path="url(#clipPath13)" />
    <path
       id="path14"
       d="M 0,0 3.946,-3.991 17.013,8.941 13.066,12.933 Z M 3.931,-6.821 -2.827,0.016 13.082,15.762 19.84,8.926 Z"
       style="fill:#ffffff;fill-opacity:1;fill-rule:nonzero;stroke:none"
       transform="matrix(1.3333333,0,0,-1.3333333,111.03907,133.05213)"
       clip-path="url(#clipPath15)" />
    <path
       id="path16"
       d="M 0,0 14.488,14.339 19.84,8.925 5.352,-5.414 Z"
       style="fill:#ffffff;fill-opacity:1;fill-rule:nonzero;stroke:none"
       transform="matrix(1.3333333,0,0,-1.3333333,68.909467,118.67907)"
       clip-path="url(#clipPath17)" />
    <path
       id="path18"
       d="M 0,0 3.946,-3.991 17.012,8.941 13.066,12.933 Z M 3.93,-6.821 -2.827,0.016 13.082,15.762 19.839,8.925 Z"
       style="fill:#ffffff;fill-opacity:1;fill-rule:nonzero;stroke:none"
       transform="matrix(1.3333333,0,0,-1.3333333,70.794267,118.68947)"
       clip-path="url(#clipPath19)" />
  </g>
</svg>
