<?xml version="1.0" encoding="UTF-8"?>
<svg version="1.1" xmlns="http://www.w3.org/2000/svg" width="1550" height="750">
<path d="M0 0 C3.50827915 1.52079073 5.95271646 3.5995673 8.75 6.1875 C9.63171875 6.99574219 10.5134375 7.80398438 11.421875 8.63671875 C12.27265625 9.41660156 13.1234375 10.19648438 14 11 C15.32899114 12.17161061 16.6619604 13.33873392 18 14.5 C21.89790485 17.89494939 25.73347057 21.35665884 29.5703125 24.8203125 C31.6560618 26.69145094 33.75817628 28.53924831 35.875 30.375 C39.84252724 33.82851561 43.7084764 37.3900394 47.57763672 40.95263672 C50.35458682 43.50525763 53.14963313 46.02968205 56 48.5 C59.87817013 51.86322638 63.65527811 55.33335671 67.43310547 58.80810547 C72.25583911 63.24222727 77.12261178 67.62608411 82 72 C89.37915947 78.61743978 96.70300267 85.29227909 104 92 C109.83692998 87.88571698 115.09178696 83.28189854 120.33984375 78.4453125 C122.55495426 76.40910225 124.79130824 74.41045446 127.0625 72.4375 C130.94187744 69.06585294 134.75520349 65.62372208 138.5703125 62.1796875 C140.6560618 60.30854906 142.75817628 58.46075169 144.875 56.625 C148.78994583 53.21520847 152.61177396 49.70660037 156.43261719 46.19238281 C161.25546911 41.75802997 166.12324023 37.37497099 171 33 C172.66692647 31.50028872 174.33359149 30.00028679 176 28.5 C176.82628906 27.7575 177.65257812 27.015 178.50390625 26.25 C180.16222983 24.75517311 181.81592441 23.2551942 183.46484375 21.75 C188.60176348 17.0756465 193.85337062 12.59614598 199.26171875 8.23828125 C202.55371751 5.54738926 205.77176132 2.76706172 209 0 C228.8 0 248.6 0 269 0 C269 78.54 269 157.08 269 238 C246.56 238 224.12 238 201 238 C200.67 193.12 200.34 148.24 200 102 C195.05 106.455 195.05 106.455 190 111 C188.24416043 112.4557762 186.47679656 113.89804789 184.6875 115.3125 C179.87334412 119.20320708 175.35075666 123.33000466 170.83666992 127.55786133 C166.64706391 131.45968389 162.27845286 135.07310178 157.8125 138.65625 C154.01835871 141.81803441 150.43716235 145.18545364 146.83374023 148.56079102 C143.508452 151.65780084 140.11280061 154.59621684 136.5625 157.4375 C132.18731852 160.94656113 128.08111893 164.65969415 124 168.5 C119.6888386 172.53541676 115.36158717 176.53448138 110.875 180.375 C109.60269531 181.46941406 109.60269531 181.46941406 108.3046875 182.5859375 C106 184 106 184 103.98046875 183.9765625 C101.35934775 182.68409652 99.55825319 181.01244454 97.4375 179 C93.96631419 175.77711799 90.45291065 172.70357718 86.75 169.75 C80.98765665 165.0910841 75.61507994 160.06672284 70.21484375 155 C67.22225667 152.19482746 64.1603944 149.48385954 61.0546875 146.8046875 C58.33075297 144.41218226 55.66656731 141.95594058 53 139.5 C49.6997517 136.46107665 46.3905059 133.43843844 43 130.5 C39.60949092 127.5615588 36.30035066 124.53881537 33 121.5 C28.39367939 117.26006686 23.72598528 113.10618393 19 109 C16.03 106.36 13.06 103.72 10 101 C9.67 146.21 9.34 191.42 9 238 C-41.44148638 238.1209091 -41.44148638 238.1209091 -62.69921875 238.14648438 C-77.33417949 238.16423396 -91.96908814 238.18501562 -106.60400391 238.22631836 C-117.26604315 238.25639426 -127.92803982 238.2756158 -138.59012032 238.28226548 C-144.22590537 238.28614719 -149.86156874 238.29514969 -155.49731445 238.31719017 C-206.88275293 238.51016484 -256.5738545 234.33785899 -295.0625 196.25 C-305 186.00470133 -305 186.00470133 -305 182 C-303.97261719 181.56429687 -302.94523438 181.12859375 -301.88671875 180.6796875 C-283.59330076 172.85420672 -265.81110487 163.35400385 -253.75 146.9375 C-252 145 -252 145 -249.64453125 144.5703125 C-247 145 -247 145 -244.96484375 147.08984375 C-244.29582031 148.02957031 -243.62679687 148.96929687 -242.9375 149.9375 C-231.37822506 164.83228711 -214.42765757 172.01805915 -196.09107971 174.53697205 C-189.99211051 175.183674 -183.89698276 175.17620645 -177.76928711 175.20532227 C-176.47074799 175.21522186 -175.17220886 175.22512146 -173.83432007 175.23532104 C-170.2998609 175.26216171 -166.76538866 175.28328293 -163.23088527 175.30332303 C-159.52731797 175.32531244 -155.82378999 175.35263725 -152.12025452 175.37937927 C-145.1188391 175.42913213 -138.11740166 175.47413493 -131.11594349 175.51740164 C-123.14004437 175.56692356 -115.16418472 175.62178584 -107.18832386 175.67708123 C-90.79225237 175.79063377 -74.39614458 175.89753014 -58 176 C-58.02886795 174.78272217 -58.0577359 173.56544434 -58.08747864 172.3112793 C-58.35223796 160.77938243 -58.54646235 149.24811028 -58.67355824 137.71385193 C-58.74110242 131.78514915 -58.83254118 125.85891991 -58.98071289 119.93164062 C-59.1230897 114.19959638 -59.19992246 108.46991392 -59.23340416 102.73623657 C-59.25722832 100.56087085 -59.30375231 98.385619 -59.37449074 96.21127319 C-59.77877699 83.25642733 -58.91817814 74.72236729 -49.89739704 64.9384079 C-48.77968819 63.79096263 -47.65077447 62.65428602 -46.50902939 61.53075504 C-44.50106562 59.49388241 -42.8259226 57.26979572 -41.16015625 54.94921875 C-40.64259766 54.24144287 -40.12503906 53.53366699 -39.59179688 52.80444336 C-39.08712891 52.10585205 -38.58246094 51.40726074 -38.0625 50.6875 C-36.88674256 49.07810761 -35.71096058 47.46873314 -34.53515625 45.859375 C-33.35675168 44.23959726 -32.17836624 42.61980562 -31 41 C-22.32618295 29.11303224 -13.5031678 17.37005722 -4.40356445 5.80493164 C-2.91217345 3.88705832 -1.45247527 1.94746037 0 0 Z " fill="#020000" transform="translate(1152,256)"/>
<path d="M0 0 C2.90221328 1.31270914 4.96712292 2.71898982 7.20703125 4.9765625 C7.79419922 5.56566406 8.38136719 6.15476563 8.98632812 6.76171875 C9.58896484 7.37660156 10.19160156 7.99148437 10.8125 8.625 C11.40353516 9.21667969 11.99457031 9.80835938 12.60351562 10.41796875 C15.58846538 13.43221463 18.46156064 16.502505 21.21948242 19.72607422 C24.99699933 24.06014223 29.00597361 28.11641997 33.09375 32.15625 C33.84410522 32.9028186 34.59446045 33.64938721 35.36755371 34.4185791 C37.7425992 36.78152025 40.12086817 39.1411737 42.5 41.5 C45.63839217 44.61160646 48.77332745 47.72663755 51.90625 50.84375 C52.6137439 51.54294556 53.32123779 52.24214111 54.0501709 52.96252441 C57.95472963 56.84804897 61.64183356 60.84326137 65.23864746 65.01379395 C68.30250625 68.46878364 71.59107058 71.69331731 74.875 74.9375 C75.96723877 76.02405884 75.96723877 76.02405884 77.08154297 77.13256836 C79.38525646 79.42418303 81.69219474 81.71250652 84 84 C87.04464779 87.01785081 90.08582967 90.03913416 93.125 93.0625 C93.81062012 93.73982178 94.49624023 94.41714355 95.20263672 95.11499023 C98.41755919 98.31376326 101.52388093 101.55134849 104.48632812 104.98632812 C108.16184758 109.24601207 112.0935676 113.20298655 116.09375 117.15625 C116.84410522 117.9028186 117.59446045 118.64938721 118.36755371 119.4185791 C120.7425992 121.78152025 123.12086817 124.1411737 125.5 126.5 C128.63839217 129.61160646 131.77332745 132.72663755 134.90625 135.84375 C135.96749084 136.89254333 135.96749084 136.89254333 137.0501709 137.96252441 C140.95037371 141.84371428 144.63241668 145.83456536 148.22521973 150.00036621 C151.36296297 153.53564181 154.73286189 156.83478243 158.09375 160.15625 C158.84410522 160.9028186 159.59446045 161.64938721 160.36755371 162.4185791 C162.7425992 164.78152025 165.12086817 167.1411737 167.5 169.5 C170.63839217 172.61160646 173.77332745 175.72663755 176.90625 178.84375 C177.96749084 179.89254333 177.96749084 179.89254333 179.0501709 180.96252441 C183.02750092 184.92046551 186.81471542 188.97750616 190.46032715 193.24377441 C191.91337685 194.90119344 193.42322081 196.46079487 195 198 C193.54844106 201.33578513 191.72074062 203.52498603 189.1484375 206.08203125 C188.37886719 206.84966797 187.60929687 207.61730469 186.81640625 208.40820312 C186.01074219 209.20162109 185.20507812 209.99503906 184.375 210.8125 C183.59253906 211.59431641 182.81007813 212.37613281 182.00390625 213.18164062 C178.54323402 216.61648694 175.07242288 219.9843511 171.3515625 223.13671875 C164.52749605 229.01417733 158.33163412 235.60403868 152 242 C137.23854486 256.91142638 137.23854486 256.91142638 131.19140625 262.03125 C125.20645214 267.40810717 119.6584032 273.2841094 114 279 C99.23854486 293.91142638 99.23854486 293.91142638 93.19140625 299.03125 C87.20645214 304.40810717 81.6584032 310.2841094 76 316 C60.68551172 331.47007814 60.68551172 331.47007814 54.6328125 336.59423828 C51.95051869 338.90354566 49.47856268 341.41355519 47 343.9375 C46.51144531 344.43056641 46.02289063 344.92363281 45.51953125 345.43164062 C44.34396475 346.61873229 43.17161174 347.80900498 42 349 C36.7808855 344.68768145 32.13666812 340.10942856 27.5625 335.125 C21.6300951 328.71752101 21.6300951 328.71752101 15.5 322.5 C13.10754282 320.1485271 10.86853577 317.73629824 8.6875 315.1875 C5.77749549 311.79804395 2.67840058 308.63548547 -0.5 305.5 C-4.21846961 301.83153502 -7.73668187 298.0685078 -11.125 294.09375 C-13.48345274 291.46014444 -15.9844568 288.98173782 -18.5 286.5 C-21.59491502 283.44662049 -24.61934277 280.37676315 -27.4375 277.0625 C-30.45352804 273.52320926 -33.69447578 270.26505255 -37 267 C-40.89895683 263.14878063 -44.60824297 259.23578271 -48.16015625 255.05859375 C-50.50494756 252.43501622 -52.99627278 249.97006366 -55.5 247.5 C-59.88234735 243.16600959 -64.03757061 238.71975378 -68 234 C-66.39822218 230.01912835 -63.61769406 227.34506826 -60.6171875 224.38671875 C-60.08408966 223.85407913 -59.55099182 223.32143951 -59.0017395 222.7726593 C-57.87266483 221.64660079 -56.74116559 220.5229688 -55.60742188 219.40161133 C-53.89664129 217.70891256 -52.19382508 216.00852511 -50.4921875 214.30664062 C-49.38848786 213.20786401 -48.28433479 212.10954264 -47.1796875 211.01171875 C-46.68040741 210.51355148 -46.18112732 210.01538422 -45.66671753 209.50212097 C-42.92381462 206.7946806 -40.11413536 204.2130154 -37.19140625 201.70019531 C-32.48538762 197.61767436 -28.13004588 193.21945965 -23.7578125 188.78515625 C-22.01575432 187.03047056 -20.27356304 185.275917 -18.53125 183.52148438 C-15.81027793 180.77554699 -13.0909403 178.02802619 -10.37402344 175.27807617 C-7.7354247 172.60946113 -5.09079443 169.94694531 -2.4453125 167.28515625 C-1.62765411 166.45403824 -0.80999573 165.62292023 0.03244019 164.76661682 C1.16469528 163.62929359 1.16469528 163.62929359 2.31982422 162.46899414 C2.98408417 161.79727676 3.64834412 161.12555939 4.33273315 160.43348694 C6 159 6 159 8 159 C5.83486087 155.05259702 3.34828332 152.10484742 0.16137695 148.93432617 C-0.31698608 148.45567108 -0.79534912 147.97701599 -1.28820801 147.4838562 C-2.85801402 145.91543468 -4.43476631 144.35420196 -6.01171875 142.79296875 C-7.10645988 141.70196088 -8.20075797 140.61050828 -9.29463196 139.51863098 C-12.16552705 136.65534766 -15.04237874 133.79812333 -17.92053223 130.94213867 C-20.86016322 128.0230191 -23.79409365 125.09818232 -26.72851562 122.17382812 C-32.48012774 116.44362258 -38.23804816 110.71980835 -44 105 C-46.73097059 106.32421115 -48.86410897 107.5886 -51.08203125 109.66796875 C-51.67306641 110.22033203 -52.26410156 110.77269531 -52.87304688 111.34179688 C-53.83307617 112.25541992 -53.83307617 112.25541992 -54.8125 113.1875 C-55.49248047 113.82880859 -56.17246094 114.47011719 -56.87304688 115.13085938 C-64.37240669 122.25889811 -71.66082547 129.60293014 -78.92895508 136.96557617 C-86.71105824 144.82966388 -86.71105824 144.82966388 -90.90625 148.40625 C-96.76564809 153.41836242 -102.08525886 159.01815378 -107.5 164.5 C-120.00176072 177.1566955 -120.00176072 177.1566955 -126.27929688 182.50634766 C-128.98380656 184.85399099 -131.49194723 187.38352513 -134 189.9375 C-134.73283203 190.67709961 -134.73283203 190.67709961 -135.48046875 191.43164062 C-136.65603525 192.61873229 -137.82838826 193.80900498 -139 195 C-133.99100226 201.00923442 -128.59058141 206.4765562 -123.00976562 211.95117188 C-122.33751953 212.61568359 -121.66527344 213.28019531 -120.97265625 213.96484375 C-120.37718994 214.5487085 -119.78172363 215.13257324 -119.16821289 215.73413086 C-117.29925253 217.68726914 -115.53510261 219.68184054 -113.77124023 221.72875977 C-109.93211241 226.1425537 -105.84601502 230.26379825 -101.6875 234.375 C-100.91494873 235.14376465 -100.14239746 235.9125293 -99.34643555 236.70458984 C-96.90005818 239.13885765 -94.4504586 241.56984106 -92 244 C-88.76786312 247.20536178 -85.53917465 250.41414073 -82.3125 253.625 C-81.21844849 254.706604 -81.21844849 254.706604 -80.10229492 255.81005859 C-76.14862117 259.74501187 -72.40841829 263.78397086 -68.76708984 268.00805664 C-65.63263956 271.54135035 -62.26451764 274.83737216 -58.90625 278.15625 C-58.15589478 278.9028186 -57.40553955 279.64938721 -56.63244629 280.4185791 C-54.2574008 282.78152025 -51.87913183 285.1411737 -49.5 287.5 C-46.36160783 290.61160646 -43.22667255 293.72663755 -40.09375 296.84375 C-39.03250916 297.89254333 -39.03250916 297.89254333 -37.9498291 298.96252441 C-34.68422219 302.21221195 -31.52226814 305.49623683 -28.51367188 308.98632812 C-24.77202888 313.32462222 -20.75995317 317.34888094 -16.6875 321.375 C-15.91494873 322.14376465 -15.14239746 322.9125293 -14.34643555 323.70458984 C-11.90005818 326.13885765 -9.4504586 328.56984106 -7 331 C-3.76786312 334.20536178 -0.53917465 337.41414073 2.6875 340.625 C3.78155151 341.706604 3.78155151 341.706604 4.89770508 342.81005859 C8.95424906 346.84739501 12.82195201 350.98144553 16.54125977 355.33233643 C18.7757985 357.88690973 21.27868407 360.1095212 23.8125 362.359375 C25 364 25 364 24.91015625 365.96484375 C23.78835478 368.47324961 22.41871696 369.90882578 20.4375 371.8125 C19.71046875 372.51375 18.9834375 373.215 18.234375 373.9375 C15.61813135 376.35249414 12.93192302 378.67357405 10.23046875 380.9921875 C5.63279595 385.13089821 1.33690694 389.59134276 -3 394 C-9.5906201 388.57700031 -15.57161412 382.57412452 -21.59375 376.5390625 C-22.71026297 375.42322469 -23.82692421 374.30753524 -24.94372559 373.19198608 C-27.27514636 370.86203291 -29.60476646 368.53029832 -31.93310547 366.19726562 C-34.89831861 363.22636246 -37.86799068 360.25996355 -40.83904266 357.29490089 C-43.14358532 354.99399494 -45.44571238 352.69068389 -47.74714661 350.38666916 C-48.84030545 349.29284928 -49.93419078 348.19975491 -51.02885437 347.10744095 C-60.60040878 337.55192853 -60.60040878 337.55192853 -64.5 332.99560547 C-68.72812349 328.06024056 -73.36102814 323.52743095 -77.97114563 318.95368958 C-79.63113059 317.30666117 -81.28780235 315.65636048 -82.94372559 314.00524902 C-86.45965651 310.50065361 -89.97951953 307.00002445 -93.5 303.5 C-97.58492585 299.43880992 -101.66814893 295.37593706 -105.74714661 291.30879211 C-107.36626771 289.69607417 -108.98840784 288.08643782 -110.61071777 286.47692871 C-118.77325475 278.35450308 -118.77325475 278.35450308 -122.48632812 274.01367188 C-126.77348536 269.00446037 -131.47958069 264.4091006 -136.15634155 259.76849365 C-137.84992862 258.0878576 -139.54020777 256.40395371 -141.22973633 254.71923828 C-144.81699813 251.14331463 -148.4081912 247.57135568 -152 244 C-156.16752973 239.85620177 -160.33335975 235.71072339 -164.4949646 231.56097412 C-166.14732532 229.91501894 -167.80270465 228.27214355 -169.45825195 226.62939453 C-174.34989274 221.76131016 -179.1353495 216.85458449 -183.62234497 211.60473633 C-185.25259987 209.70576365 -186.96821348 207.91719807 -188.74609375 206.15625 C-189.35517578 205.55039062 -189.96425781 204.94453125 -190.59179688 204.3203125 C-191.20087891 203.71960938 -191.80996094 203.11890625 -192.4375 202.5 C-193.07365234 201.86835938 -193.70980469 201.23671875 -194.36523438 200.5859375 C-195.90782806 199.05494226 -197.45357314 197.52712333 -199 196 C-194.31429594 190.37116701 -189.31520448 185.16421013 -184.125 180 C-183.36058594 179.23171875 -182.59617188 178.4634375 -181.80859375 177.671875 C-178.41849256 174.2875295 -175.02298376 170.97186037 -171.3671875 167.875 C-164.53673202 161.99467731 -158.3363333 155.40070824 -152 149 C-137.23854486 134.08857362 -137.23854486 134.08857362 -131.19140625 128.96875 C-125.20645214 123.59189283 -119.6584032 117.7158906 -114 112 C-99.2092366 97.0589676 -99.2092366 97.0589676 -93.16015625 91.9375 C-87.3569019 86.7324111 -81.98151652 81.03928909 -76.5 75.5 C-61.68974812 60.53365512 -61.68974812 60.53365512 -55.58789062 55.36083984 C-53.27343158 53.37732282 -51.13756925 51.23346877 -49 49.0625 C-47.8553125 47.90427734 -47.8553125 47.90427734 -46.6875 46.72265625 C-46.130625 46.15417969 -45.57375 45.58570313 -45 45 C-41.98168412 46.32495665 -40.24036974 47.62565429 -38.1875 50.1875 C-34.52188715 54.53693651 -30.54226997 58.50591668 -26.5 62.5 C-22.15582753 66.80130063 -17.93946425 71.1031362 -14 75.78125 C-10.96327156 79.15012061 -7.72188306 82.30909659 -4.5 85.5 C-0.15635562 89.80187857 4.06048757 94.10307899 8 98.78125 C11.67200523 102.8548808 15.63333172 106.65129989 19.52905273 110.50952148 C23.20992998 114.16846971 26.7216616 117.87740091 30.06640625 121.84765625 C33.50819048 125.67881405 37.22517834 129.24357028 40.88476562 132.86523438 C44.44720038 136.40485739 47.82894662 140.01008058 51.0703125 143.84765625 C55.80118857 149.12440264 60.95633372 154.02459387 66 159 C64.48498157 162.55935889 62.40379907 164.8440477 59.67724609 167.56567383 C58.7822641 168.46373245 57.8872821 169.36179108 56.96517944 170.2870636 C55.9847756 171.26056424 55.0041903 172.23388217 54.0234375 173.20703125 C53.01376439 174.21551071 52.00446236 175.22436182 50.99551392 176.23356628 C48.87850618 178.3490107 46.75818646 180.46105838 44.63525391 182.57055664 C41.93385179 185.2550674 39.23897954 187.94601413 36.54639244 190.63936329 C34.46012476 192.72535682 32.37124324 194.80871658 30.28151321 196.89124107 C29.28832349 197.88127914 28.29571144 198.8718971 27.30372238 199.8631382 C22.24103755 204.91783679 17.13919314 209.85202635 11.71060181 214.51277161 C9.39498975 216.52600694 7.22416392 218.66316828 5.0625 220.83984375 C4.23105469 221.67451172 3.39960938 222.50917969 2.54296875 223.36914062 C1.28419922 224.64047852 1.28419922 224.64047852 0 225.9375 C-1.30517578 227.24944336 -1.30517578 227.24944336 -2.63671875 228.58789062 C-4.76013549 230.72297449 -6.88116378 232.86037205 -9 235 C-7.51588085 240.19777751 -4.25457053 243.11564493 -0.48828125 246.76953125 C0.15816849 247.40936447 0.80461823 248.04919769 1.47065735 248.7084198 C3.5359411 250.75035647 5.61109502 252.78187858 7.6875 254.8125 C9.74434887 256.83404854 11.7989626 258.8577943 13.8507843 260.88444519 C15.12531151 262.14227842 16.40292354 263.39699703 17.68424988 264.64790344 C21.44056105 268.34246598 24.9708607 272.16699735 28.3979187 276.1693573 C30.94496103 279.07977418 33.68157897 281.78903126 36.4375 284.5 C36.97826172 285.03625 37.51902344 285.5725 38.07617188 286.125 C39.38176617 287.41904036 40.69052996 288.70988174 42 290 C46.30173773 287.69286833 49.55453849 284.71269673 52.94848633 281.26269531 C53.52158035 280.68828705 54.09467438 280.11387878 54.68513489 279.52206421 C56.57208084 277.6286466 58.45194369 275.72835069 60.33203125 273.828125 C61.65042226 272.50345692 62.96933419 271.17930711 64.28874207 269.85565186 C67.7603426 266.37076206 71.22633727 262.88035455 74.69073486 259.38830566 C80.22317042 253.81274121 85.76224715 248.24379652 91.30475426 242.67824554 C93.23026085 240.74260214 95.15226559 238.80353274 97.07392883 236.86407471 C102.3659415 231.53587223 107.64105863 226.27356282 113.36650085 221.40518188 C115.82072111 219.29399263 118.09389334 217.01801983 120.375 214.72265625 C121.29667969 213.79775391 122.21835937 212.87285156 123.16796875 211.91992188 C124.11203607 210.96750432 125.05604582 210.01502969 126 209.0625 C126.97502386 208.0824469 127.9502828 207.1026276 128.92578125 206.12304688 C131.28616618 203.75097687 133.64416905 201.3765914 136 199 C134.0121884 196.6554017 132.01210723 194.32368648 130 192 C129.40590332 191.3105127 128.81180664 190.62102539 128.19970703 189.91064453 C120.50502442 181.166261 112.14382668 173.07023254 103.875 164.875 C100.84857452 161.87538529 97.82563286 158.87232014 94.8046875 155.8671875 C94.12534149 155.19613983 93.44599548 154.52509216 92.74606323 153.83370972 C89.54964584 150.653508 86.4633915 147.43317622 83.51806641 144.01806641 C79.84087927 139.75709805 75.90790045 135.79846428 71.90625 131.84375 C71.15589478 131.0971814 70.40553955 130.35061279 69.63244629 129.5814209 C67.2574008 127.21847975 64.87913183 124.8588263 62.5 122.5 C59.36160783 119.38839354 56.22667255 116.27336245 53.09375 113.15625 C52.3862561 112.45705444 51.67876221 111.75785889 50.9498291 111.03747559 C47.04962629 107.15628572 43.36758332 103.16543464 39.77478027 98.99963379 C36.63703703 95.46435819 33.26713811 92.16521757 29.90625 88.84375 C29.15589478 88.0971814 28.40553955 87.35061279 27.63244629 86.5814209 C25.2574008 84.21847975 22.87913183 81.8588263 20.5 79.5 C17.36160783 76.38839354 14.22667255 73.27336245 11.09375 70.15625 C10.3862561 69.45705444 9.67876221 68.75785889 8.9498291 68.03747559 C5.00727608 64.11414195 1.2744207 60.08162205 -2.35733032 55.86975098 C-4.77179154 53.12151664 -7.33411103 50.54078688 -9.93359375 47.96875 C-10.71779442 47.18667175 -10.71779442 47.18667175 -11.51783752 46.38879395 C-13.15534998 44.75678922 -14.79633849 43.12833426 -16.4375 41.5 C-17.5620833 40.38044368 -18.68643405 39.26065371 -19.81054688 38.140625 C-22.53769344 35.42438466 -25.26795907 32.71131708 -28 30 C-26.36221955 25.80374091 -23.26676818 23.01323215 -20.1171875 19.921875 C-19.54292023 19.35043762 -18.96865295 18.77900024 -18.37698364 18.19024658 C-16.5476419 16.37207055 -14.71145807 14.56098508 -12.875 12.75 C-11.63105226 11.51608671 -10.3875573 10.28171678 -9.14453125 9.046875 C-6.10157633 6.02593257 -3.05246746 3.01132908 0 0 Z " fill="#020000" transform="translate(322,178)"/>
<path d="M0 0 C1.75544228 0.00028261 3.51088469 0.00012269 5.2663269 -0.0004425 C9.99688092 -0.00072759 14.7274092 0.00512225 19.45795727 0.01213145 C24.41469884 0.01841326 29.3714411 0.01897259 34.32818604 0.02015686 C43.69885699 0.023256 53.06951618 0.03145018 62.44018197 0.04150635 C73.11498348 0.05271163 83.78978557 0.05818904 94.4645915 0.06320179 C116.40901807 0.07363407 138.35343407 0.09120591 160.29785156 0.11352539 C158.84051697 3.94968029 157.30251231 6.56337478 154.61035156 9.67602539 C150.2504035 14.874425 146.15977645 20.23280871 142.11035156 25.67602539 C135.52894214 34.50833504 128.90846439 43.32036991 121.98916149 51.89256001 C120.26303524 54.07655205 120.26303524 54.07655205 118.88970661 56.44704723 C116.58919942 60.02667552 114.81169503 62.64736875 110.63925743 63.93218422 C107.34657086 64.23392664 104.16087983 64.24689021 100.85522461 64.16357422 C99.61515152 64.16821686 98.37507843 64.1728595 97.09742737 64.17764282 C94.40680048 64.18133123 91.72219048 64.16881754 89.03244591 64.12803078 C84.76298241 64.06353874 80.49490879 64.06299639 76.22505188 64.07048035 C69.45352576 64.07487026 62.68300534 64.03699035 55.9117344 63.98091191 C43.83500416 63.88152199 31.75815854 63.839469 19.68103629 63.83417147 C15.45589433 63.83048112 11.23172604 63.80356928 7.00683266 63.75863165 C-18.62669992 63.50707877 -40.63298102 66.03804953 -60.05371094 84.01196289 C-68.16789793 92.90160332 -71.27394119 104.00556342 -74.82519531 115.23852539 C-82.02383211 137.1926344 -96.28783051 152.63084185 -116.55664062 163.27490234 C-137.94513534 173.8422871 -161.07275082 177.21208713 -184.68896484 177.31884766 C-186.0697355 177.32844783 -187.45050335 177.33845909 -188.83126831 177.34884644 C-192.5495477 177.37567012 -196.26783949 177.39680033 -199.98616076 177.41684842 C-203.88324217 177.43884854 -207.78028637 177.46616802 -211.67733765 177.49290466 C-219.04350536 177.54264326 -226.40969394 177.58765124 -233.77590215 177.63092703 C-242.16777649 177.68046128 -250.55961344 177.73531891 -258.95145154 177.79060662 C-276.2016505 177.90413723 -293.45188405 178.0103357 -310.70214844 178.11352539 C-311.03214844 197.91352539 -311.36214844 217.71352539 -311.70214844 238.11352539 C-335.79214844 238.11352539 -359.88214844 238.11352539 -384.70214844 238.11352539 C-384.70214844 197.85352539 -384.70214844 157.59352539 -384.70214844 116.11352539 C-369.575 116.06454102 -354.44785156 116.01555664 -338.86230469 115.96508789 C-329.28742913 115.9297087 -319.7125597 115.8938336 -310.13769531 115.85571289 C-294.93515407 115.79527903 -279.73262437 115.73688821 -264.5300293 115.69165039 C-253.45828401 115.65869527 -242.38658862 115.6188445 -231.31489843 115.57073534 C-225.45328741 115.54550545 -219.59170934 115.52371372 -213.73005867 115.51018143 C-208.2102546 115.49732933 -202.69056373 115.47524081 -197.17082214 115.4461422 C-195.14763044 115.43709106 -193.12442053 115.43138195 -191.10120964 115.42931175 C-188.33228385 115.4259718 -185.56367565 115.41044761 -182.79481506 115.39199829 C-182.00004055 115.39393303 -181.20526603 115.39586776 -180.38640743 115.39786112 C-170.48478418 115.29968217 -161.56913494 113.12411081 -153.90917969 106.58227539 C-150.3247759 102.82971438 -148.83129885 99.19397897 -147.52636719 94.23071289 C-139.19503744 62.72170275 -121.38460899 37.50753587 -92.93261719 20.85180664 C-64.229163 4.74015699 -32.50138191 -0.07387794 0 0 Z " fill="#020000" transform="translate(973.7021484375,255.886474609375)"/>
<path d="M0 0 C51.93717676 -0.08060607 51.93717676 -0.08060607 73.76953125 -0.09765625 C88.81983815 -0.10950461 103.87012259 -0.12340261 118.92041016 -0.15087891 C129.88343579 -0.17088374 140.84644313 -0.1837332 151.80948651 -0.18817699 C157.60825245 -0.1907724 163.40696609 -0.19682409 169.20571518 -0.21146011 C174.67708224 -0.22515637 180.14837603 -0.2291986 185.61975861 -0.22621536 C187.61499812 -0.22676019 189.61024039 -0.23066521 191.60546494 -0.23841095 C207.36945634 -0.29654496 223.05523957 0.34572397 238.4375 4.125 C239.29585449 4.33237793 240.15420898 4.53975586 241.03857422 4.75341797 C264.33060693 10.72453194 264.33060693 10.72453194 271 18 C270.33613281 18.59167969 269.67226563 19.18335938 268.98828125 19.79296875 C267.66376953 20.97826172 267.66376953 20.97826172 266.3125 22.1875 C265.00732422 23.35345703 265.00732422 23.35345703 263.67578125 24.54296875 C249.51227529 37.54858226 238.73980146 51.9112012 230 69 C229.3709375 68.80664062 228.741875 68.61328125 228.09375 68.4140625 C227.2378125 68.15367187 226.381875 67.89328125 225.5 67.625 C224.6646875 67.36976563 223.829375 67.11453125 222.96875 66.8515625 C221.9890625 66.57054687 221.009375 66.28953125 220 66 C218.90067139 65.65901276 217.80134277 65.31802551 216.66870117 64.96670532 C210.63203431 63.4789233 204.51435651 63.69165988 198.33203125 63.68115234 C196.96140459 63.67184044 195.59078354 63.66166992 194.22016907 63.65071106 C190.52035941 63.62353904 186.82058755 63.60829989 183.12070465 63.59528303 C179.24627881 63.57959613 175.37192953 63.55282379 171.49755859 63.5272522 C164.17029031 63.48056246 156.84300747 63.44377106 149.51566696 63.41057932 C141.16976449 63.37228844 132.82393911 63.32289664 124.47810173 63.27259517 C107.3187847 63.1694212 90.15943535 63.08157895 73 63 C73 75.54 73 88.08 73 101 C48.91 101 24.82 101 0 101 C0 67.67 0 34.34 0 0 Z " fill="#020000" transform="translate(589,256)"/>
<path d="M0 0 C3.3357263 1.32202633 5.61604669 3.94095378 8.11311913 6.43711376 C8.68692818 7.00330929 9.26073723 7.56950481 9.85193443 8.15285778 C11.06012317 9.3502559 12.26437388 10.55163888 13.46492577 11.75669384 C15.30931401 13.60205705 17.17400519 15.42505626 19.0408535 17.24766064 C20.21207359 18.41367579 21.38203997 19.58095188 22.55061913 20.74961376 C23.11195045 21.29454983 23.67328178 21.83948589 24.25162315 22.40093517 C25.79012108 23.96763134 25.79012108 23.96763134 27.99983788 26.79258251 C27.91643446 31.06276602 24.63559 33.56417434 21.78084373 36.36802197 C21.23759453 36.91331554 20.69434532 37.45860912 20.13463402 38.02042675 C18.33515533 39.82291505 16.52515204 41.61442145 14.71468163 43.40586376 C13.45673856 44.6607471 12.19938726 45.9162239 10.94260216 47.17226696 C8.30320694 49.80705662 5.6589772 52.43685929 3.0108242 55.06284618 C-0.36601383 58.41154727 -3.73425325 61.76872627 -7.0992918 65.12928009 C-10.3248288 68.34962839 -13.55502144 71.56529146 -16.78531837 74.78086376 C-17.39364069 75.38730536 -18.00196301 75.99374695 -18.62871933 76.61856556 C-24.91552683 82.88030062 -31.18409854 89.09859927 -38.00016212 94.79258251 C-44.55393309 89.40617327 -50.47262848 83.43373124 -56.43766212 77.41758251 C-57.46542196 76.38479656 -58.49341498 75.35224261 -59.5216465 74.31992626 C-62.0171781 71.81347964 -64.50954294 69.30391172 -67.00016212 66.79258251 C-65.34619669 62.556691 -62.20398013 59.69364204 -59.05338478 56.53940868 C-58.44504295 55.92274334 -57.83670113 55.306078 -57.2099247 54.67072582 C-55.20013132 52.63686193 -53.18278118 50.61071598 -51.16422462 48.58555126 C-49.76411231 47.17647423 -48.3640788 45.7673189 -46.96412086 44.35808849 C-44.03063681 41.40812262 -41.09279405 38.46257234 -38.15250587 35.51938915 C-34.37866721 31.74015099 -30.6212688 27.94500338 -26.8676033 24.14574242 C-23.98331807 21.23178497 -21.08791409 18.32907603 -18.18926048 15.42941761 C-16.79844878 14.03438824 -15.41177609 12.63522 -14.02929497 11.23193455 C-12.09966848 9.2755842 -10.15501932 7.33551331 -8.20572853 5.39878368 C-7.6341552 4.81237606 -7.06258186 4.22596844 -6.47368813 3.62179089 C-2.51825576 -0.26114397 -2.51825576 -0.26114397 0 0 Z " fill="#020000" transform="translate(276.0001621246338,305.20741748809814)"/>
<path d="M0 0 C3.18990333 1.54498347 5.51891909 4.0796086 7.99719238 6.55697632 C8.57100143 7.12317184 9.14481049 7.68936737 9.73600769 8.27272034 C10.94419643 9.47011846 12.14844713 10.67150143 13.34899902 11.8765564 C15.19338727 13.7219196 17.05807844 15.54491882 18.92492676 17.36752319 C20.09614684 18.53353835 21.26611323 19.70081444 22.43469238 20.86947632 C22.99602371 21.41441238 23.55735504 21.95934845 24.13569641 22.52079773 C27.84066944 26.29367708 27.84066944 26.29367708 28.02746582 28.96664429 C26.38435842 31.76245257 24.34171254 33.80651306 22.03625488 36.08822632 C21.54613419 36.57647385 21.05601349 37.06472137 20.55104065 37.56776428 C19.51127296 38.60081562 18.46791663 39.63026574 17.42126465 40.65634155 C15.84452389 42.20228378 14.27836488 43.75829854 12.71398926 45.31674194 C8.57890424 49.41447218 4.44515697 53.45009081 0.03649902 57.25326538 C-4.27596828 60.99920092 -8.3118687 64.98100835 -12.33483887 69.03353882 C-13.07818481 69.77829971 -13.82153076 70.52306061 -14.58740234 71.29039001 C-16.93268188 73.64121252 -19.27443722 75.99550938 -21.61608887 78.34994507 C-23.21741848 79.95629706 -24.81897885 81.56241904 -26.42077637 83.16830444 C-30.32188359 87.08036491 -34.22011307 90.99527459 -38.11608887 94.91244507 C-44.01516257 89.93626316 -49.60914961 84.70328043 -55.09851074 79.28012085 C-56.11931352 78.2760687 -57.14547508 77.27743876 -58.17663574 76.2840271 C-59.679039 74.83609306 -61.1645841 73.37264816 -62.64733887 71.90463257 C-63.52970215 71.04208862 -64.41206543 70.17954468 -65.32116699 69.29086304 C-67.11608887 66.91244507 -67.11608887 66.91244507 -67.26965332 64.95419312 C-65.47974353 61.78614748 -62.82814965 59.6263968 -60.12780762 57.25228882 C-53.42759661 51.18198257 -47.01320786 44.86076237 -40.6742897 38.41826248 C-39.06734169 36.78547999 -37.45760447 35.15549664 -35.84701538 33.52630615 C-31.39973166 29.02628568 -26.95400802 24.52489617 -22.52893066 20.00302124 C-19.78615871 17.20106136 -17.03149282 14.41130188 -14.26843834 11.62934685 C-13.226061 10.57523531 -12.1882318 9.51660574 -11.15513039 8.45340157 C-9.72473019 6.98223138 -8.27971237 5.52710557 -6.8302002 4.07479858 C-6.01384598 3.2443251 -5.19749176 2.41385162 -4.35639954 1.55821228 C-2.11608887 -0.08755493 -2.11608887 -0.08755493 0 0 Z " fill="#020000" transform="translate(402.1160888671875,350.0875549316406)"/>
</svg>
